<mxfile host="app.diagrams.net" modified="2023-08-23T12:59:11.496Z" agent="Mozilla/5.0 (Macintosh; Intel Mac OS X 10_15_7) AppleWebKit/537.36 (KHTML, like Gecko) Chrome/116.0.0.0 Safari/537.36" etag="sOzH2oF3dS62mp7oglP1" version="21.6.9" type="github">
  <diagram name="Page-1" id="RoUQDqZp1Y4rLb-Pong4">
    <mxGraphModel dx="1008" dy="1228" grid="1" gridSize="10" guides="1" tooltips="1" connect="1" arrows="1" fold="1" page="1" pageScale="1" pageWidth="1169" pageHeight="827" math="0" shadow="0">
      <root>
        <mxCell id="0" />
        <mxCell id="1" parent="0" />
        <mxCell id="r3h4qP0tQllHy-lEQtFF-1" value="Place page" style="whiteSpace=wrap;html=1;aspect=fixed;" vertex="1" parent="1">
          <mxGeometry x="120" y="120" width="80" height="80" as="geometry" />
        </mxCell>
        <mxCell id="r3h4qP0tQllHy-lEQtFF-18" style="edgeStyle=orthogonalEdgeStyle;rounded=0;orthogonalLoop=1;jettySize=auto;html=1;entryX=0;entryY=0.5;entryDx=0;entryDy=0;entryPerimeter=0;" edge="1" parent="1" source="r3h4qP0tQllHy-lEQtFF-16" target="r3h4qP0tQllHy-lEQtFF-22">
          <mxGeometry relative="1" as="geometry">
            <Array as="points">
              <mxPoint x="300" y="160" />
              <mxPoint x="320" y="160" />
            </Array>
          </mxGeometry>
        </mxCell>
        <mxCell id="r3h4qP0tQllHy-lEQtFF-19" style="edgeStyle=orthogonalEdgeStyle;rounded=0;orthogonalLoop=1;jettySize=auto;html=1;entryX=0;entryY=0.5;entryDx=0;entryDy=0;entryPerimeter=0;" edge="1" parent="1" source="r3h4qP0tQllHy-lEQtFF-16" target="r3h4qP0tQllHy-lEQtFF-23">
          <mxGeometry relative="1" as="geometry" />
        </mxCell>
        <mxCell id="r3h4qP0tQllHy-lEQtFF-21" style="edgeStyle=orthogonalEdgeStyle;rounded=0;orthogonalLoop=1;jettySize=auto;html=1;entryX=0;entryY=0.5;entryDx=0;entryDy=0;entryPerimeter=0;" edge="1" parent="1" source="r3h4qP0tQllHy-lEQtFF-16" target="r3h4qP0tQllHy-lEQtFF-24">
          <mxGeometry relative="1" as="geometry" />
        </mxCell>
        <mxCell id="r3h4qP0tQllHy-lEQtFF-16" value="Spotlights" style="rounded=0;whiteSpace=wrap;html=1;" vertex="1" parent="1">
          <mxGeometry x="240" y="40" width="120" height="40" as="geometry" />
        </mxCell>
        <mxCell id="r3h4qP0tQllHy-lEQtFF-22" value="Economic Insecurity" style="html=1;whiteSpace=wrap;strokeColor=none;fillColor=#0079D6;labelPosition=center;verticalLabelPosition=middle;verticalAlign=top;align=center;fontSize=12;outlineConnect=0;spacingTop=-6;fontColor=#FFFFFF;sketch=0;shape=mxgraph.sitemap.page;" vertex="1" parent="1">
          <mxGeometry x="360" y="520" width="200" height="120" as="geometry" />
        </mxCell>
        <mxCell id="r3h4qP0tQllHy-lEQtFF-23" value="Housing" style="html=1;whiteSpace=wrap;strokeColor=none;fillColor=#0079D6;labelPosition=center;verticalLabelPosition=middle;verticalAlign=top;align=center;fontSize=12;outlineConnect=0;spacingTop=-6;fontColor=#FFFFFF;sketch=0;shape=mxgraph.sitemap.page;" vertex="1" parent="1">
          <mxGeometry x="360" y="680" width="200" height="120" as="geometry" />
        </mxCell>
        <mxCell id="r3h4qP0tQllHy-lEQtFF-24" value="Health" style="html=1;whiteSpace=wrap;strokeColor=none;fillColor=#0079D6;labelPosition=center;verticalLabelPosition=middle;verticalAlign=top;align=center;fontSize=12;outlineConnect=0;spacingTop=-6;fontColor=#FFFFFF;sketch=0;shape=mxgraph.sitemap.page;" vertex="1" parent="1">
          <mxGeometry x="360" y="840" width="200" height="120" as="geometry" />
        </mxCell>
        <mxCell id="r3h4qP0tQllHy-lEQtFF-25" value="&lt;h1&gt;Spotlights&lt;/h1&gt;&lt;p&gt;For the prototyping stage, we&#39;re focussing on &lt;b&gt;Economic Insecurity&lt;/b&gt;, &lt;b&gt;Housing&lt;/b&gt; and &lt;b&gt;Health&lt;/b&gt;.&lt;/p&gt;&lt;p&gt;The following spotlights are being de-prioritised to a later phase.&lt;/p&gt;&lt;p&gt;&lt;/p&gt;&lt;ul&gt;&lt;li&gt;&lt;b&gt;Homelessness&lt;/b&gt; (can cover in part in the Housing spotlight)&lt;/li&gt;&lt;li&gt;&lt;b&gt;Children&lt;/b&gt; / &lt;b&gt;Young People&lt;/b&gt; / &lt;b&gt;Older People&lt;/b&gt; (can cover as aspect of other spotlights)&lt;/li&gt;&lt;li&gt;&lt;b&gt;Work and Employment&lt;/b&gt; (could be covered in part in Economic Insecurity)&lt;/li&gt;&lt;li&gt;&lt;b&gt;Social Inclusion&lt;/b&gt; (needs JRF insight to complete)&lt;/li&gt;&lt;/ul&gt;&lt;p&gt;&lt;/p&gt;" style="text;html=1;strokeColor=none;fillColor=none;spacing=5;spacingTop=-20;whiteSpace=wrap;overflow=hidden;rounded=0;" vertex="1" parent="1">
          <mxGeometry x="780" y="30" width="330" height="240" as="geometry" />
        </mxCell>
      </root>
    </mxGraphModel>
  </diagram>
</mxfile>
